<?xml version="1.0" standalone="no"?>
<!DOCTYPE svg PUBLIC "-//W3C//DTD SVG 20010904//EN"
 "http://www.w3.org/TR/2001/REC-SVG-20010904/DTD/svg10.dtd">
<svg version="1.0" xmlns="http://www.w3.org/2000/svg"
 width="1000.000000pt" height="1000.000000pt" viewBox="0 0 1563.000000 1563.000000"
 preserveAspectRatio="xMidYMid meet">

<g transform="translate(0.000000,1563.000000) scale(0.100000,-0.100000)"
fill="#000000" stroke="none">
<path d="M11395 15221 c-3 -5 -2 -12 3 -15 5 -3 9 1 9 9 0 17 -3 19 -12 6z"/>
<path d="M11435 15190 c-3 -5 -1 -10 4 -10 6 0 11 5 11 10 0 6 -2 10 -4 10 -3
0 -8 -4 -11 -10z"/>
<path d="M11506 15143 c-3 -4 -6 -13 -6 -22 0 -13 2 -13 9 -2 5 7 14 10 20 7
6 -4 11 -3 11 2 0 12 -26 23 -34 15z"/>
<path d="M12485 14930 c-3 -5 -1 -10 4 -10 6 0 11 5 11 10 0 6 -2 10 -4 10 -3
0 -8 -4 -11 -10z"/>
<path d="M13522 14854 c3 -3 27 -7 54 -10 26 -2 59 -12 73 -21 24 -15 25 -15
12 0 -7 9 -30 21 -50 27 -38 11 -98 14 -89 4z"/>
<path d="M13167 14809 c-5 -17 -2 -20 14 -16 10 3 19 1 19 -4 0 -5 5 -9 10 -9
6 0 10 7 10 15 0 8 -3 14 -7 14 -20 -3 -34 2 -28 11 3 6 2 10 -3 10 -5 0 -12
-9 -15 -21z"/>
<path d="M13120 14794 c-17 -9 -20 -14 -9 -14 9 0 22 7 29 15 15 18 13 18 -20
-1z"/>
<path d="M12680 14700 c-9 -6 -10 -10 -3 -10 6 0 15 5 18 10 8 12 4 12 -15 0z"/>
<path d="M12620 14080 c0 -5 5 -10 11 -10 5 0 7 5 4 10 -3 6 -8 10 -11 10 -2
0 -4 -4 -4 -10z"/>
<path d="M12255 13900 c-3 -5 1 -10 9 -10 9 0 16 5 16 10 0 6 -4 10 -9 10 -6
0 -13 -4 -16 -10z"/>
<path d="M12987 13889 c7 -7 15 -10 18 -7 3 3 -2 9 -12 12 -14 6 -15 5 -6 -5z"/>
<path d="M12898 13863 c7 -3 16 -2 19 1 4 3 -2 6 -13 5 -11 0 -14 -3 -6 -6z"/>
<path d="M12284 13834 c-14 -6 -6 -41 14 -65 16 -18 19 -29 27 -83 3 -15 18
-42 34 -58 16 -17 27 -37 24 -44 -3 -10 0 -12 10 -8 19 7 11 41 -13 54 -28 15
-32 40 -11 74 l20 31 -24 23 c-14 13 -29 21 -34 18 -5 -3 -14 1 -21 9 -10 12
-10 15 3 15 22 0 32 20 16 31 -15 9 -27 10 -45 3z"/>
<path d="M13000 13831 c0 -5 7 -11 14 -14 10 -4 13 -1 9 9 -6 15 -23 19 -23 5z"/>
<path d="M13096 13795 c10 -8 23 -15 28 -15 6 0 1 7 -10 15 -10 8 -23 15 -28
15 -6 0 -1 -7 10 -15z"/>
<path d="M13345 13780 c3 -5 16 -10 28 -10 18 0 19 2 7 10 -20 13 -43 13 -35
0z"/>
<path d="M13430 13720 c0 -6 5 -10 10 -10 6 0 10 -7 10 -16 0 -9 9 -18 20 -21
11 -3 20 -9 20 -14 0 -12 37 -11 45 1 3 6 0 10 -9 10 -8 0 -16 4 -18 8 -5 13
-78 52 -78 42z"/>
<path d="M13155 13670 c3 -5 11 -10 16 -10 6 0 7 5 4 10 -3 6 -11 10 -16 10
-6 0 -7 -4 -4 -10z"/>
<path d="M13619 13551 c26 -36 31 -38 24 -13 -2 10 -14 24 -25 31 -20 12 -20
12 1 -18z"/>
<path d="M12394 13531 c1 -16 5 -26 10 -23 5 3 7 -2 3 -11 -6 -17 22 -107 34
-107 4 0 5 -8 3 -18 -3 -9 4 -27 16 -40 12 -12 18 -27 15 -32 -3 -6 -2 -10 3
-10 6 0 15 -13 21 -30 5 -16 15 -30 22 -30 6 0 9 -7 5 -15 -6 -16 3 -19 28 -9
24 9 19 39 -9 60 -19 14 -24 25 -20 42 3 12 2 22 -3 22 -5 0 -19 18 -31 41
-17 30 -22 51 -18 79 5 41 -6 60 -35 60 -10 0 -18 6 -18 14 0 7 -6 19 -14 25
-10 9 -13 5 -12 -18z"/>
<path d="M13670 13503 c0 -5 17 -18 38 -30 36 -21 88 -61 124 -95 29 -29 21
-9 -12 29 -16 18 -30 38 -30 43 0 5 -10 12 -22 16 -13 3 -35 15 -50 25 -27 20
-48 25 -48 12z"/>
<path d="M13416 13431 c-3 -5 0 -14 8 -20 11 -9 15 -7 19 9 5 20 -16 29 -27
11z"/>
<path d="M12544 13177 c3 -10 6 -22 6 -26 0 -5 11 -6 25 -3 29 5 28 27 -1 27
-10 0 -23 5 -27 10 -5 6 -6 2 -3 -8z"/>
<path d="M13765 13040 c3 -5 8 -10 11 -10 2 0 4 5 4 10 0 6 -5 10 -11 10 -5 0
-7 -4 -4 -10z"/>
<path d="M13850 13010 c14 -27 29 -34 23 -11 -3 11 -11 22 -19 25 -11 4 -12 2
-4 -14z"/>
<path d="M12644 12909 c3 -17 6 -35 6 -40 0 -15 40 -10 46 6 4 8 14 15 24 15
11 0 21 4 25 9 6 11 -30 25 -43 17 -5 -3 -18 1 -28 9 -29 22 -37 18 -30 -16z"/>
<path d="M12690 12828 c0 -26 7 -37 35 -58 19 -15 19 -15 2 12 -9 15 -17 34
-17 42 0 8 -4 18 -10 21 -6 3 -10 -4 -10 -17z"/>
<path d="M12737 12743 c-4 -3 -7 -11 -7 -17 0 -6 5 -5 12 2 6 6 9 14 7 17 -3
3 -9 2 -12 -2z"/>
<path d="M12792 12701 c4 -13 18 -16 19 -4 0 4 -5 9 -11 12 -7 2 -11 -2 -8 -8z"/>
<path d="M12815 12657 c-13 -11 -15 -16 -6 -22 14 -8 61 13 61 27 0 13 -34 9
-55 -5z"/>
<path d="M12860 12595 c0 -7 -9 -17 -20 -20 -25 -8 -26 -25 -1 -25 10 0 24 -7
31 -15 16 -19 37 0 36 34 -1 26 -46 53 -46 26z"/>
<path d="M9115 10864 c-349 -77 -564 -408 -565 -869 0 -361 148 -666 385 -792
124 -65 183 -78 355 -77 138 1 168 4 270 31 63 17 152 47 197 68 l82 38 3 338
3 339 -61 0 -62 0 6 -349 5 -348 -79 -26 c-188 -63 -382 -81 -502 -49 -225 61
-382 272 -437 587 -21 119 -21 364 0 483 64 369 256 588 534 609 87 6 228 -15
316 -48 76 -28 173 -96 210 -147 44 -60 73 -55 41 7 -39 75 -165 154 -309 193
-100 26 -299 33 -392 12z"/>
<path d="M1770 9995 l0 -865 388 2 c379 3 387 3 387 23 0 15 -5 19 -20 16 -11
-2 -156 -6 -323 -8 l-302 -5 2 851 3 851 -67 0 -68 0 0 -865z"/>
<path d="M3130 10296 c-84 -18 -146 -54 -210 -123 -109 -116 -162 -275 -162
-487 0 -219 50 -366 162 -469 82 -77 147 -100 260 -95 67 3 96 10 140 32 98
49 204 173 240 280 21 64 4 50 -33 -28 -92 -195 -246 -263 -411 -182 -59 29
-134 102 -164 162 -52 101 -67 181 -67 344 0 85 3 163 7 173 7 16 33 17 348
17 386 0 349 -10 330 90 -30 157 -132 261 -285 289 -70 13 -84 13 -155 -3z
m206 -54 c56 -29 100 -82 119 -144 20 -69 19 -91 -6 -114 -18 -16 -45 -19
-202 -25 -100 -4 -219 -8 -264 -8 l-81 -1 10 38 c30 112 111 220 193 259 42
20 61 23 120 20 45 -2 85 -11 111 -25z"/>
<path d="M4235 10295 c-134 -28 -247 -104 -294 -200 l-20 -40 -1 123 c0 67 -3
122 -7 122 -3 0 -30 -8 -60 -17 l-53 -17 0 -568 0 -568 63 0 62 0 -3 443 -3
443 29 54 c48 93 153 154 290 166 99 9 146 -7 209 -71 41 -42 56 -67 72 -120
20 -63 21 -91 21 -491 l0 -424 66 0 c53 0 65 3 61 14 -3 8 -7 216 -8 464 -2
516 -8 484 93 552 71 47 138 65 248 65 128 0 191 -41 247 -160 l28 -60 0 -437
0 -438 63 0 62 0 0 403 c0 433 -6 504 -45 594 -65 146 -184 204 -361 174 -155
-26 -260 -83 -321 -174 l-32 -47 -24 53 c-31 68 -79 123 -131 149 -52 27 -157
32 -251 13z"/>
<path d="M6023 10295 c-191 -42 -333 -187 -390 -396 -23 -87 -23 -280 0 -369
56 -215 205 -361 405 -400 83 -17 219 -7 300 20 161 56 287 209 328 400 18 87
18 245 -2 333 -68 306 -336 478 -641 412z m279 -48 c109 -54 200 -189 234
-347 23 -109 15 -339 -16 -435 -70 -223 -237 -346 -426 -315 -160 26 -271 145
-326 349 -29 107 -29 323 0 433 45 168 125 272 250 325 80 34 203 29 284 -10z"/>
<path d="M7342 10295 c-124 -27 -219 -89 -281 -182 l-31 -46 0 116 c0 64 -3
117 -7 117 -3 0 -30 -8 -60 -17 l-53 -17 0 -568 0 -568 63 0 62 0 -3 437 c-3
502 -5 492 79 567 60 53 139 85 231 93 131 11 213 -37 259 -152 l24 -60 0
-442 0 -443 60 0 60 0 -3 257 c-6 632 -8 685 -27 738 -58 160 -174 213 -373
170z"/>
<path d="M10503 10296 c-89 -28 -148 -81 -189 -170 l-23 -49 -5 34 c-3 19 -8
69 -11 112 -4 48 -11 77 -18 77 -7 0 -29 -8 -50 -18 l-38 -17 -2 -568 -2 -567
63 0 62 0 0 460 c0 449 1 462 21 503 28 55 56 85 101 108 51 26 104 24 205 -8
104 -32 136 -26 141 26 4 44 -18 67 -79 80 -65 14 -124 13 -176 -3z"/>
<path d="M11323 10295 c-166 -36 -295 -142 -361 -296 -51 -117 -67 -313 -37
-452 68 -324 374 -499 698 -401 10 3 -10 -30 -50 -83 -38 -49 -88 -119 -111
-156 -24 -36 -52 -69 -61 -72 -10 -3 -69 6 -132 19 -146 32 -388 71 -554 92
-180 21 -601 30 -745 15 -414 -44 -699 -145 -766 -274 -19 -36 -10 -63 26 -82
51 -26 76 -19 71 22 -2 16 74 76 134 105 99 49 268 95 455 123 147 23 606 31
808 15 273 -21 662 -83 662 -105 0 -7 -82 -143 -183 -301 -101 -159 -228 -362
-282 -451 l-98 -163 -4619 0 c-4394 0 -4619 -1 -4616 -17 3 -17 233 -18 4605
-23 l4602 -5 -71 -125 c-159 -281 -308 -596 -399 -845 l-47 -130 -79 -44 c-43
-24 -153 -88 -245 -142 -387 -230 -609 -325 -682 -291 -24 11 -26 17 -26 71 0
84 27 161 129 368 111 226 129 277 113 332 -7 22 -27 52 -47 70 -49 43 -86 41
-162 -8 -66 -42 -263 -223 -448 -411 -104 -105 -158 -150 -180 -150 -21 0 57
166 135 286 61 93 64 122 16 170 -19 19 -41 34 -50 34 -40 0 -144 -124 -181
-217 l-23 -56 -128 -32 c-236 -59 -464 -161 -882 -394 -204 -113 -301 -151
-412 -158 -88 -6 -119 5 -168 62 -96 108 -116 272 -50 404 l23 46 55 -2 c133
-5 235 34 363 136 70 57 107 107 107 146 0 53 -64 104 -155 125 -42 9 -59 8
-119 -10 -176 -54 -317 -166 -393 -315 l-42 -80 -173 -86 c-194 -97 -311 -145
-443 -185 -73 -21 -112 -27 -205 -28 -107 -1 -119 1 -172 27 -69 34 -126 95
-175 190 -35 66 -107 137 -138 137 -25 0 -354 -351 -525 -560 -192 -235 -338
-401 -357 -408 -31 -9 -6 118 56 300 76 218 151 369 312 626 44 68 79 128 79
133 0 4 -15 19 -33 33 -65 50 -142 28 -210 -60 -33 -42 -41 -47 -84 -50 -68
-5 -130 -20 -271 -65 -199 -64 -393 -156 -745 -351 -212 -119 -309 -156 -422
-165 -95 -7 -141 15 -192 94 -69 108 -80 237 -32 358 l24 60 90 1 c58 0 109 7
142 18 70 23 161 84 233 154 56 54 60 61 60 103 0 53 -20 77 -90 108 -79 34
-109 35 -196 6 -213 -71 -368 -227 -419 -421 -40 -153 6 -294 140 -429 71 -72
137 -106 221 -113 131 -10 254 37 594 228 331 186 566 293 763 345 51 14 98
25 104 25 7 0 -5 -29 -28 -66 -89 -146 -191 -412 -223 -583 -22 -116 -21 -285
2 -330 19 -38 72 -71 112 -71 52 1 72 21 350 360 255 309 509 600 547 623 8 5
20 -8 38 -42 39 -78 138 -177 214 -216 219 -109 440 -66 932 181 l109 54 0
-68 c0 -88 20 -153 70 -231 118 -182 256 -241 450 -192 104 26 202 72 435 205
204 117 356 195 495 254 104 44 262 98 316 108 l34 6 -6 -45 c-15 -104 50
-227 120 -227 41 0 78 31 251 209 224 230 353 341 437 376 l38 15 -12 -27 c-7
-16 -37 -71 -67 -123 -112 -194 -141 -284 -141 -430 0 -100 17 -161 58 -203
108 -114 234 -74 783 252 139 83 254 150 255 148 1 -1 -6 -38 -16 -81 -54
-225 -63 -483 -21 -566 51 -100 109 -135 226 -135 71 0 88 4 148 33 95 47 264
161 537 362 240 177 426 310 434 310 2 0 -7 -32 -20 -70 -30 -86 -25 -128 21
-178 56 -62 186 -73 316 -27 80 29 200 56 219 50 41 -13 64 -118 40 -181 -6
-15 -27 -45 -46 -66 -50 -56 -91 -144 -78 -166 12 -19 45 -27 79 -18 28 7 112
119 149 198 22 46 52 81 154 175 70 64 172 152 227 196 101 80 118 100 91 110
-31 12 -146 -65 -322 -215 l-110 -95 -31 47 c-69 104 -175 115 -407 41 -103
-32 -132 -38 -144 -29 -35 29 16 191 112 351 86 146 234 272 308 265 50 -5 78
-54 78 -134 0 -66 20 -104 55 -104 8 0 24 9 35 20 30 30 28 150 -3 205 -35 62
-111 96 -212 96 -70 0 -87 -4 -151 -35 -113 -56 -190 -134 -278 -281 -32 -52
-52 -68 -258 -207 -123 -82 -326 -228 -453 -322 -394 -295 -493 -341 -579
-265 -61 53 -69 132 -36 334 37 231 79 359 221 682 79 180 276 580 372 758
l76 140 1678 5 c1588 5 1678 6 1681 23 3 16 -81 17 -1662 17 -916 0 -1666 2
-1666 5 0 30 462 778 526 853 l31 37 319 -63 c521 -102 774 -132 1098 -132
302 0 567 33 676 83 49 23 150 119 150 142 0 10 -11 15 -32 15 -24 0 -40 -10
-69 -41 -31 -33 -53 -46 -126 -69 -157 -50 -309 -65 -658 -65 -198 0 -348 5
-415 13 -279 35 -877 146 -898 166 -10 9 10 44 98 171 61 87 109 166 108 174
-2 9 -17 25 -33 36 l-31 19 67 63 c119 113 173 255 173 458 0 198 -49 332
-163 445 -127 126 -304 175 -488 135z m275 -49 c107 -55 187 -168 228 -321 25
-95 25 -320 1 -419 -41 -165 -137 -292 -254 -336 -86 -33 -192 -30 -272 5
-120 54 -212 191 -247 364 -24 124 -16 318 19 426 40 123 101 211 182 263 64
41 112 52 205 49 69 -3 95 -9 138 -31z m-8188 -3320 c0 -27 -95 -112 -161
-145 -75 -37 -149 -52 -149 -30 0 7 24 36 53 64 86 84 257 157 257 111z m3876
-15 c-37 -70 -174 -159 -262 -169 -44 -5 -46 -4 -35 15 36 69 210 183 278 183
l34 0 -15 -29z"/>
<path d="M13627 10300 c-169 -30 -305 -180 -359 -396 -28 -114 -30 -323 -5
-428 38 -152 125 -273 234 -324 50 -23 71 -27 153 -27 88 0 101 3 162 33 87
43 170 131 216 230 18 41 31 76 28 80 -8 7 -7 9 -44 -70 -69 -143 -170 -215
-287 -206 -163 14 -284 134 -336 336 -20 77 -26 248 -13 345 l7 47 341 2 341
3 -3 45 c-10 142 -94 263 -214 308 -67 25 -156 34 -221 22z m210 -66 c62 -39
101 -95 112 -164 17 -105 17 -105 -338 -116 l-223 -6 7 23 c36 117 84 197 146
244 60 45 95 55 176 51 59 -2 82 -8 120 -32z"/>
<path d="M12170 10289 c0 -6 20 -66 45 -133 25 -66 117 -328 203 -581 102
-298 162 -460 171 -460 8 0 75 178 188 505 95 278 187 540 203 583 35 92 36
97 11 97 -17 0 -43 -71 -187 -510 -92 -280 -170 -510 -174 -510 -6 0 -321 988
-320 1008 0 8 -20 12 -70 12 -45 0 -70 -4 -70 -11z"/>
<path d="M1560 5215 c0 -13 716 -15 6380 -15 5664 0 6380 2 6380 15 0 13 -716
15 -6380 15 -5664 0 -6380 -2 -6380 -15z"/>
<path d="M2920 2660 c0 -5 5 -10 11 -10 5 0 7 5 4 10 -3 6 -8 10 -11 10 -2 0
-4 -4 -4 -10z"/>
<path d="M4000 2585 c0 -10 43 -85 51 -91 9 -5 -1 23 -24 74 -9 19 -27 31 -27
17z"/>
<path d="M3055 2420 c-3 -5 -1 -10 4 -10 6 0 11 5 11 10 0 6 -2 10 -4 10 -3 0
-8 -4 -11 -10z"/>
<path d="M3415 2410 c-3 -5 -2 -10 4 -10 5 0 13 5 16 10 3 6 2 10 -4 10 -5 0
-13 -4 -16 -10z"/>
<path d="M4069 2397 c6 -8 9 -17 6 -21 -3 -3 0 -2 6 3 12 10 4 31 -13 31 -7 0
-7 -4 1 -13z"/>
<path d="M4060 2345 c-11 -13 -10 -14 4 -9 9 3 16 10 16 15 0 13 -6 11 -20 -6z"/>
<path d="M3130 2250 c0 -5 5 -10 11 -10 5 0 7 5 4 10 -3 6 -8 10 -11 10 -2 0
-4 -4 -4 -10z"/>
<path d="M3230 2135 c7 -8 17 -12 22 -9 6 4 5 10 -3 15 -22 14 -33 10 -19 -6z"/>
<path d="M3240 1600 c0 -5 5 -10 10 -10 6 0 10 5 10 10 0 6 -4 10 -10 10 -5 0
-10 -4 -10 -10z"/>
<path d="M3480 1580 c0 -16 4 -30 8 -30 5 0 7 14 4 30 -2 17 -6 30 -8 30 -2 0
-4 -13 -4 -30z"/>
<path d="M3220 1553 c0 -13 5 -23 10 -23 13 0 13 11 0 30 -8 12 -10 11 -10 -7z"/>
<path d="M3240 1455 c0 -8 2 -15 4 -15 2 0 6 7 10 15 3 8 1 15 -4 15 -6 0 -10
-7 -10 -15z"/>
<path d="M4635 1380 c-15 -17 -16 -20 -3 -20 9 0 18 9 21 20 3 11 4 20 3 20
-2 0 -11 -9 -21 -20z"/>
<path d="M3472 1350 c0 -14 2 -19 5 -12 2 6 2 18 0 25 -3 6 -5 1 -5 -13z"/>
<path d="M3240 1316 c0 -8 5 -18 10 -21 6 -3 10 1 10 9 0 8 -4 18 -10 21 -5 3
-10 -1 -10 -9z"/>
<path d="M2702 1191 c13 -22 28 -28 28 -11 0 5 -9 14 -20 20 -19 10 -20 10 -8
-9z"/>
<path d="M3294 1198 c-5 -7 -2 -9 8 -5 10 3 20 -4 28 -21 11 -22 14 -24 17
-10 5 19 -18 48 -36 48 -5 0 -13 -5 -17 -12z"/>
<path d="M4446 1171 c-4 -7 -5 -15 -2 -18 9 -9 19 4 14 18 -4 11 -6 11 -12 0z"/>
<path d="M2030 1161 c0 -4 21 -14 48 -21 26 -7 52 -16 57 -19 6 -3 2 2 -8 12
-11 9 -27 17 -38 17 -10 0 -21 5 -24 10 -8 12 -35 13 -35 1z"/>
<path d="M3480 1130 c0 -5 7 -10 16 -10 8 0 12 5 9 10 -3 6 -10 10 -16 10 -5
0 -9 -4 -9 -10z"/>
<path d="M2830 1106 c0 -18 17 -29 30 -21 8 5 7 11 -1 21 -15 18 -29 18 -29 0z"/>
<path d="M4405 1105 c-5 -11 -16 -25 -24 -32 -9 -6 -13 -14 -9 -18 11 -11 50
35 45 53 -3 15 -5 14 -12 -3z"/>
<path d="M3690 1089 c0 -5 5 -7 10 -4 6 3 10 8 10 11 0 2 -4 4 -10 4 -5 0 -10
-5 -10 -11z"/>
<path d="M2311 1076 c11 -9 69 -15 64 -6 -3 6 -20 10 -37 10 -17 0 -29 -2 -27
-4z"/>
<path d="M2510 1051 c8 -4 29 -11 45 -15 19 -4 25 -3 15 3 -8 4 -28 11 -45 15
-19 4 -25 3 -15 -3z"/>
<path d="M3286 1044 c-9 -24 -7 -27 9 -10 17 17 19 26 6 26 -5 0 -12 -7 -15
-16z"/>
<path d="M2900 1042 c0 -4 11 -19 24 -33 13 -14 29 -35 35 -47 7 -13 21 -22
34 -22 21 1 20 2 -9 28 -17 15 -38 39 -48 55 -15 25 -36 37 -36 19z"/>
<path d="M2618 1013 c7 -3 16 -2 19 1 4 3 -2 6 -13 5 -11 0 -14 -3 -6 -6z"/>
<path d="M3228 989 c-28 -30 -22 -54 6 -26 15 15 28 47 18 46 -4 0 -15 -9 -24
-20z"/>
<path d="M4235 930 c3 -5 8 -10 11 -10 2 0 4 5 4 10 0 6 -5 10 -11 10 -5 0 -7
-4 -4 -10z"/>
<path d="M4135 890 c-3 -5 -1 -10 4 -10 6 0 11 5 11 10 0 6 -2 10 -4 10 -3 0
-8 -4 -11 -10z"/>
<path d="M3020 554 c0 -8 5 -12 10 -9 6 4 8 11 5 16 -9 14 -15 11 -15 -7z"/>
<path d="M3045 270 c3 -5 8 -10 11 -10 2 0 4 5 4 10 0 6 -5 10 -11 10 -5 0 -7
-4 -4 -10z"/>
</g>
</svg>
